<svg width="32" height="32" viewBox="0 0 32 32" fill="none" xmlns="http://www.w3.org/2000/svg">
<g id="All">
<g id="Developer-Center">
<g id="Group-28">
<g id="Group-29">
<g id="Group-10">
<g id="Group-13">
<g id="Group-46">
<g id="Group-45">
<path id="Oval" d="M16 32C24.8366 32 32 24.8366 32 16C32 7.16344 24.8366 0 16 0C7.16344 0 0 7.16344 0 16C0 24.8366 7.16344 32 16 32Z" fill="#627EEA"/>
<path id="Path" d="M16.4987 3.99805V12.8685L23.9956 16.2189L16.4987 3.99805Z" fill="white" fill-opacity="0.602"/>
<path id="Path_1_" d="M16.4986 3.99805L9.00159 16.2189L16.4986 12.8685V3.99805Z" fill="white"/>
<path id="Path_2_" d="M16.4987 21.9664V27.9937L24 17.6143L16.4987 21.9664Z" fill="white" fill-opacity="0.602"/>
<path id="Path_3_" d="M16.4986 27.9937V21.9664L9.00159 17.6143L16.4986 27.9937Z" fill="white"/>
<path id="Path_4_" d="M16.4987 20.5707L23.9956 16.2186L16.4987 12.8682V20.5707Z" fill="white" fill-opacity="0.2"/>
</g>
<path id="Path_5_" d="M9.00159 16.2186L16.4986 20.5707V12.8682L9.00159 16.2186Z" fill="white" fill-opacity="0.602"/>
</g>
</g>
</g>
</g>
</g>
</g>
</g>
</svg>
