<svg xmlns="http://www.w3.org/2000/svg" width="90" height="40" viewBox="0 0 90 40" fill="none">
  <rect x="0.5" y="0.5" width="89" height="39" rx="3.5" stroke="#242424"/>
  <path fill-rule="evenodd" clip-rule="evenodd" d="M29.3923 12.691C28.8038 13.396 27.8622 13.952 26.9206 13.8726C26.8029 12.9193 27.2639 11.9065 27.8034 11.2809C28.3919 10.5561 29.4218 10.0397 30.2555 10C30.3536 10.993 29.971 11.9661 29.3923 12.691ZM30.2457 14.0613C29.4161 14.013 28.6592 14.3139 28.0478 14.5569C27.6543 14.7133 27.3212 14.8458 27.0677 14.8458C26.7832 14.8458 26.4363 14.7062 26.0468 14.5496L26.0468 14.5496L26.0468 14.5496C25.5364 14.3443 24.9529 14.1096 24.3409 14.1209C22.9383 14.1408 21.6338 14.9451 20.9177 16.226C19.4465 18.7879 20.5352 22.581 21.9575 24.6662C22.6539 25.6989 23.4876 26.8309 24.5861 26.7912C25.0694 26.7727 25.4171 26.6234 25.7769 26.4688C26.1911 26.2909 26.6214 26.106 27.2933 26.106C27.9419 26.106 28.3534 26.2861 28.7484 26.4589C29.1239 26.6232 29.4846 26.781 30.0201 26.7713C31.1579 26.7515 31.8739 25.7386 32.5703 24.706C33.3218 23.5976 33.6521 22.5159 33.7022 22.3518L33.7081 22.3328C33.7069 22.3315 33.6976 22.3272 33.6812 22.3197C33.43 22.2032 31.5098 21.3133 31.4913 18.9269C31.4729 16.9238 33.0144 15.909 33.2571 15.7492L33.2571 15.7492L33.2572 15.7491C33.2719 15.7395 33.2818 15.7329 33.2863 15.7295C32.3055 14.2599 30.7753 14.101 30.2457 14.0613ZM38.122 26.6621V11.1817H43.86C46.8222 11.1817 48.8918 13.2471 48.8918 16.2657C48.8918 19.2843 46.7829 21.3696 43.7815 21.3696H40.4957V26.6621H38.122ZM40.4955 13.2073H43.2321C45.2919 13.2073 46.4689 14.3194 46.4689 16.2756C46.4689 18.2317 45.2919 19.3538 43.2223 19.3538H40.4955V13.2073ZM56.7288 24.8054C56.1011 26.0169 54.7181 26.7814 53.2272 26.7814C51.0203 26.7814 49.4803 25.4509 49.4803 23.4451C49.4803 21.4591 50.9712 20.3172 53.7274 20.1484L56.6896 19.9697V19.1157C56.6896 17.8546 55.8755 17.1695 54.4238 17.1695C53.2272 17.1695 52.3542 17.7951 52.1777 18.7483H50.0394C50.1081 16.7425 51.9717 15.2829 54.4925 15.2829C57.2094 15.2829 58.975 16.7227 58.975 18.9568V26.6623H56.7779V24.8054H56.7288ZM53.8646 24.9441C52.5993 24.9441 51.795 24.3285 51.795 23.3852C51.795 22.4121 52.5699 21.8461 54.051 21.7567L56.6895 21.5879V22.4617C56.6895 23.9114 55.4732 24.9441 53.8646 24.9441ZM66.2627 27.2679C65.3113 29.9787 64.2225 30.8724 61.9077 30.8724C61.7312 30.8724 61.1427 30.8525 61.0053 30.8128V28.9559C61.1525 28.9758 61.5154 28.9956 61.7017 28.9956C62.7513 28.9956 63.3398 28.5488 63.7027 27.387L63.9185 26.7019L59.897 15.4317H62.3785L65.174 24.5769H65.223L68.0184 15.4317H70.4313L66.2627 27.2679Z" fill="white"/>
</svg>