<svg xmlns="http://www.w3.org/2000/svg" width="8" height="8" viewBox="0 0 8 8" fill="none">
  <path d="M3.17687 1.32311L5.67687 3.82311C5.70012 3.84633 5.71856 3.8739 5.73114 3.90425C5.74372 3.9346 5.7502 3.96713 5.7502 3.99999C5.7502 4.03284 5.74372 4.06537 5.73114 4.09572C5.71856 4.12607 5.70012 4.15364 5.67688 4.17686L3.17688 6.67686C3.14191 6.71186 3.09735 6.73571 3.04883 6.74537C3.00031 6.75503 2.95001 6.75008 2.9043 6.73114C2.8586 6.7122 2.81954 6.68013 2.79207 6.63898C2.7646 6.59783 2.74996 6.54946 2.75 6.49999L2.75 1.49999C2.74996 1.45051 2.7646 1.40214 2.79207 1.36099C2.81954 1.31984 2.8586 1.28777 2.9043 1.26883C2.95001 1.24989 3.00031 1.24494 3.04883 1.2546C3.09735 1.26427 3.14191 1.28811 3.17687 1.32311Z" fill="#A5A5A5"/>
</svg>