<svg xmlns="http://www.w3.org/2000/svg" width="70" height="14" viewBox="0 0 70 14" fill="none">
  <g clip-path="url(#clip0_1138_17066)">
    <path d="M4.2277 5.88292L6.95099 3.16421L9.67573 5.88436L11.2603 4.30236L6.95099 0L2.6431 4.30092L4.2277 5.88292Z" fill="#F3BA2F"/>
    <path d="M3.10868 6.99975L1.52411 5.41779L-0.060543 6.99983L1.52403 8.5818L3.10868 6.99975Z" fill="#F3BA2F"/>
    <path d="M4.2277 8.11711L6.951 10.8358L9.67562 8.11578L11.2611 9.69689L11.2603 9.69778L6.951 14L2.64299 9.69922L2.64078 9.697L4.2277 8.11711Z" fill="#F3BA2F"/>
    <path d="M12.3781 8.58253L13.9627 7.00049L12.3781 5.41852L10.7935 7.00057L12.3781 8.58253Z" fill="#F3BA2F"/>
    <path d="M8.55831 6.99919H8.55897L6.951 5.39386L5.76269 6.58022H5.76258L5.62612 6.71656L5.34447 6.99775L5.34225 6.99996L5.34447 7.00228L6.951 8.60617L8.55897 7.00085L8.55975 6.99996L8.55831 6.99919Z" fill="#F3BA2F"/>
    <path d="M16.433 3.39233H19.8794C20.7348 3.39233 21.3816 3.61149 21.82 4.04981C22.1593 4.38928 22.3288 4.81002 22.3288 5.31191V5.33315C22.3288 5.54523 22.3026 5.73265 22.2498 5.8952C22.197 6.05796 22.1266 6.20448 22.0385 6.33529C21.9507 6.46621 21.8486 6.58109 21.7325 6.67995C21.6163 6.77902 21.4915 6.86394 21.3578 6.93449C21.7878 7.09726 22.1263 7.31808 22.373 7.59739C22.6197 7.87681 22.7432 8.26393 22.7432 8.75876V8.77988C22.7432 9.11934 22.6778 9.41623 22.547 9.67089C22.4162 9.92532 22.2288 10.1375 21.9848 10.3072C21.7408 10.477 21.4474 10.6041 21.1045 10.6891C20.7616 10.7739 20.3816 10.8162 19.9646 10.8162H16.433V3.39233ZM19.5349 6.39367C19.8962 6.39367 20.183 6.33197 20.3953 6.20812C20.6078 6.08439 20.714 5.88458 20.714 5.60892V5.58769C20.714 5.34033 20.6218 5.15125 20.4378 5.02033C20.2536 4.88952 19.988 4.82406 19.6411 4.82406H18.0264V6.39367H19.5349ZM19.9705 9.38461C20.3317 9.38461 20.6148 9.31937 20.8203 9.18845C21.0257 9.05764 21.1284 8.85429 21.1284 8.57852V8.5574C21.1284 8.30993 21.0328 8.11377 20.8416 7.9687C20.6503 7.82396 20.3423 7.75142 19.9173 7.75142H18.0264V9.38472L19.9705 9.38461Z" fill="#F3BA2F"/>
    <path d="M24.7957 3.39233H26.4318V10.8164H24.7957V3.39233Z" fill="#F3BA2F"/>
    <path d="M28.9098 3.39233H30.4181L33.9026 7.9635V3.39233H35.5173V10.8164H34.1258L30.5244 6.09689V10.8164H28.9098V3.39233Z" fill="#F3BA2F"/>
    <path d="M40.4704 3.33936H41.9788L45.1659 10.8164H43.4555L42.7756 9.15139H39.6311L38.9513 10.8164H37.2831L40.4704 3.33936ZM42.1913 7.70883L41.2033 5.3014L40.2155 7.70883H42.1913Z" fill="#F3BA2F"/>
    <path d="M46.9319 3.39233H48.4406L51.9249 7.9635V3.39233H53.5396V10.8164H52.148L48.5467 6.09689V10.8164H46.9319V3.39233Z" fill="#F3BA2F"/>
    <path d="M59.4275 10.9436C58.8819 10.9436 58.3757 10.8445 57.9082 10.6467C57.4407 10.4489 57.0371 10.1783 56.6972 9.83533C56.3572 9.49243 56.0915 9.08762 55.9005 8.62099C55.7092 8.15426 55.6136 7.65578 55.6136 7.12547V7.10435C55.6136 6.57403 55.7092 6.07744 55.9005 5.61424C56.0916 5.15115 56.3572 4.74457 56.6972 4.3946C57.037 4.04463 57.4444 3.76874 57.9187 3.56728C58.3931 3.36581 58.9175 3.26508 59.4911 3.26508C59.8379 3.26508 60.1548 3.29349 60.4417 3.34989C60.7285 3.40661 60.9887 3.48424 61.2226 3.5832C61.4564 3.68227 61.6722 3.80247 61.8708 3.94378C62.0687 4.08532 62.253 4.24079 62.423 4.41052L61.3821 5.60893C61.0914 5.34742 60.7959 5.1422 60.4949 4.9938C60.1938 4.84541 59.8558 4.77111 59.4804 4.77111C59.1687 4.77111 58.8801 4.83126 58.6147 4.95145C58.3491 5.07165 58.1206 5.23773 57.9294 5.44981C57.7383 5.6619 57.5896 5.90771 57.4831 6.18691C57.3771 6.46633 57.3241 6.76499 57.3241 7.08312V7.10424C57.3241 7.42236 57.3771 7.72301 57.4831 8.00564C57.5896 8.2886 57.7362 8.53596 57.9242 8.74804C58.1117 8.96013 58.3384 9.1282 58.6039 9.25193C58.8697 9.37578 59.1617 9.43748 59.4804 9.43748C59.9055 9.43748 60.2646 9.35974 60.5585 9.20416C60.8525 9.04881 61.1447 8.83661 61.435 8.56781L62.4762 9.61783C62.2849 9.82294 62.0863 10.0068 61.8813 10.1693C61.6758 10.332 61.451 10.4716 61.2065 10.5883C60.9623 10.7049 60.6947 10.7935 60.4047 10.8534C60.114 10.9134 59.7884 10.9436 59.4275 10.9436Z" fill="#F3BA2F"/>
    <path d="M64.4016 3.39233H70V4.8454H66.0164V6.35143H69.5221V7.80438H66.0164V9.36349H70.0534V10.8164H64.4016V3.39233Z" fill="#F3BA2F"/>
  </g>
  <defs>
    <clipPath id="clip0_1138_17066">
      <rect width="70" height="14" fill="white"/>
    </clipPath>
  </defs>
</svg>