<svg xmlns="http://www.w3.org/2000/svg" width="16" height="16" viewBox="0 0 16 16" fill="none">
  <path d="M3.4851 10.9628C3.16095 10.3266 3 9.60083 3 8.78548C3 7.70831 3.21908 6.7299 3.65723 5.85025C4.09538 4.9706 4.71684 4.27469 5.52385 3.76481C6.33085 3.25494 7.27198 3 8.34724 3C9.10283 3 9.75782 3.14929 10.31 3.45016C10.8621 3.74874 11.2802 4.16674 11.5686 4.69959C11.8547 5.23243 12 5.85714 12 6.56684H9.9769C9.95007 6.02481 9.769 5.59072 9.43592 5.26688C9.10283 4.94304 8.66915 4.78227 8.1304 4.78227C7.51118 4.78227 6.96796 4.96601 6.50298 5.33808C6.038 5.70785 5.68256 6.19936 5.43666 6.81259C5.19076 7.42582 5.06781 8.08498 5.06781 8.78548C5.06781 9.48599 5.25335 10.0808 5.62221 10.5333C5.99106 10.9881 6.4851 11.2154 7.10656 11.2154C7.72802 11.2154 8.18852 11.057 8.57526 10.7377C8.962 10.4185 9.27496 9.97519 9.51192 9.40331H11.5484C11.2578 10.5264 10.7168 11.4061 9.92772 12.0446C9.1386 12.6808 8.18405 13 7.06408 13C6.23472 13 5.51267 12.8186 4.89791 12.458C4.28316 12.0974 3.81371 11.599 3.48957 10.9628H3.4851Z" fill="#00FFA3"/>
</svg>