<svg xmlns="http://www.w3.org/2000/svg" width="317" height="46" viewBox="0 0 317 46" fill="none">
  <path d="M0 26.1608L7.64896 27.0232L13.2625 30.0416L26.4708 14.9498L31.424 20.9865L41 14.9498L55.5292 17.7526L67 8.05069L92 8.91306L101.576 3.09196L105.869 4.81673L109.501 1.36719L141.659 17.5369L150.245 24.8672L156.189 21.4176L165 8.91306L179.5 32.0002L181.615 9.99104L186.5 14.303L205.273 16.4589L223.5 28.9635L229.5 17.5368L238.746 24.4359L245.02 11.5001L254.896 29.826L261.5 24.4361L266.783 34.5691L277.02 8.05075L280.652 14.9498L292.209 22.9269L303.461 28.9635L310.726 40.0003L318 44.5003" stroke="#FF7070" stroke-width="1.5"/>
</svg>