<svg xmlns="http://www.w3.org/2000/svg" width="317" height="51" viewBox="0 0 317 51" fill="none">
  <path d="M0 40.1606L4.60833 34.1239L10.2042 37.1422L23.3708 22.0505L28.3083 28.0872L37.8542 22.0505L52.3375 24.8532L73.075 9.76147L105.333 37.3578L114.879 31.5367L119.158 33.2615L122.779 29.8119L141.213 31.5367L149.771 38.867L155.696 35.4174L158.329 22.9128L169.85 46.6284L181.042 23.9908L184.004 28.9495L199.804 2L210.996 14.5046L223.504 10.8394L232.721 17.7385L238.975 4.80275L256.75 28.3028L263.333 22.9128L268.6 33.0459L278.804 6.52752L282.425 13.4266L293.946 21.4037L302.504 42.9633L304.15 38.0046L309.746 49L316 39.7294" stroke="#FF7070" stroke-width="1.5"/>
</svg>