<svg xmlns="http://www.w3.org/2000/svg" width="64" height="12" viewBox="0 0 64 12" fill="none">
  <g clip-path="url(#clip0_1138_17056)">
    <path d="M12.9168 3.34987C10.5919 3.34987 8.77522 5.2024 8.77522 7.6824C8.77522 10.1624 10.546 11.9991 12.9168 11.9991C15.2877 11.9991 17.0892 10.1307 17.0892 7.66655C17.0892 5.21825 15.3185 3.34987 12.9168 3.34987ZM12.9325 10.2118C11.6085 10.2118 10.6383 9.13248 10.6383 7.68301C10.6383 6.21708 11.5928 5.13837 12.9168 5.13837C14.2565 5.13837 15.2261 6.23355 15.2261 7.68301C15.2261 9.13248 14.2565 10.2118 12.9325 10.2118ZM17.597 5.23472H18.7519V11.8387H20.5993V3.51085H17.597V5.23472ZM4.12586 5.13776C5.09605 5.13776 5.86581 5.76584 6.15803 6.70004H8.11351C7.75913 4.70298 6.18882 3.34987 4.14155 3.34987C1.81658 3.34987 -6.10352e-05 5.2024 -6.10352e-05 7.68301C-6.10352e-05 10.1636 1.77068 11.9997 4.14155 11.9997C6.14293 11.9997 7.74403 10.6466 8.09841 8.63306H6.15803C5.88092 9.56726 5.11116 10.2118 4.14096 10.2118C2.80129 10.2118 1.86247 9.13248 1.86247 7.68301C1.86305 6.21708 2.78677 5.13776 4.12586 5.13776ZM52.6993 6.87748L51.3445 6.66833C50.6979 6.57198 50.236 6.34636 50.236 5.81462C50.236 5.23472 50.8367 4.94507 51.6524 4.94507C52.5453 4.94507 53.1152 5.34753 53.2384 6.00793H55.0242C54.8238 4.33284 53.5922 3.35048 51.6989 3.35048C49.7434 3.35048 48.4502 4.39748 48.4502 5.87926C48.4502 7.29641 49.2972 8.1184 51.0058 8.37573L52.3606 8.58489C53.0228 8.68123 53.3923 8.95564 53.3923 9.47091C53.3923 10.1313 52.7457 10.4051 51.8528 10.4051C50.7595 10.4051 50.1437 9.93801 50.0513 9.22943H48.2346C48.4043 10.8563 49.6202 11.9997 51.8371 11.9997C53.8542 11.9997 55.1933 11.0332 55.1933 9.37395C55.1933 7.89217 54.2237 7.11896 52.6993 6.87748ZM19.6756 0.0801867C18.9982 0.0801867 18.4899 0.595457 18.4899 1.30403C18.4899 2.0126 18.9977 2.52787 19.6756 2.52787C20.353 2.52787 20.8613 2.0126 20.8613 1.30403C20.8613 0.595457 20.353 0.0801867 19.6756 0.0801867ZM46.7875 6.36221C46.7875 4.55846 45.7406 3.35048 43.5237 3.35048C41.43 3.35048 40.2599 4.46212 40.0287 6.16952H41.861C41.9534 5.50912 42.446 4.96153 43.4929 4.96153C44.4323 4.96153 44.8942 5.39631 44.8942 5.92805C44.8942 6.62076 44.0471 6.7976 43.0003 6.91041C41.5839 7.0714 39.8288 7.58667 39.8288 9.51969C39.8288 11.0179 40.8914 11.9838 42.5849 11.9838C43.9089 11.9838 44.7402 11.4039 45.1562 10.4856C45.2178 11.307 45.8028 11.8387 46.619 11.8387H47.6967V10.1155H46.7881V6.36221H46.7875ZM44.9709 8.45622C44.9709 9.56786 44.0471 10.3892 42.923 10.3892C42.2299 10.3892 41.6449 10.0831 41.6449 9.4392C41.6449 8.61782 42.5843 8.39219 43.4464 8.29585C44.2778 8.21536 44.7396 8.02205 44.9709 7.6513V8.45622ZM35.1638 3.34987C34.132 3.34987 33.2699 3.80111 32.6541 4.55785V-0.000305176H30.8067V11.8387H32.6233V10.7435C33.2391 11.5326 34.1169 11.9997 35.1638 11.9997C37.3807 11.9997 39.0591 10.1636 39.0591 7.68301C39.0591 5.2024 37.3499 3.34987 35.1638 3.34987ZM34.8867 10.2118C33.5627 10.2118 32.5925 9.13248 32.5925 7.68301C32.5925 6.23355 33.5778 5.13837 34.9018 5.13837C36.2415 5.13837 37.1803 6.21769 37.1803 7.68301C37.1803 9.13248 36.2107 10.2118 34.8867 10.2118ZM26.3879 3.34987C25.1871 3.34987 24.4017 3.86514 23.9398 4.59017V3.51085H22.1075V11.8381H23.9549V7.31226C23.9549 6.03964 24.7247 5.13776 25.8639 5.13776C26.9265 5.13776 27.5882 5.92683 27.5882 7.07079V11.8387H29.4356V6.92627C29.4362 4.83165 28.405 3.34987 26.3879 3.34987ZM63.9999 7.40922C63.9999 5.02556 62.3372 3.35048 60.1047 3.35048C57.7338 3.35048 55.9938 5.21886 55.9938 7.68301C55.9938 10.2764 57.8569 11.9997 60.1354 11.9997C62.0601 11.9997 63.5689 10.8076 63.9535 9.11662H62.0288C61.7517 9.85751 61.0743 10.2764 60.1657 10.2764C58.9799 10.2764 58.087 9.50323 57.8872 8.15011H63.9994V7.40922H63.9999ZM57.9952 6.76467C58.288 5.60486 59.1194 5.04141 60.0739 5.04141C61.1207 5.04141 61.9213 5.6695 62.106 6.76467H57.9952Z" fill="white"/>
  </g>
  <defs>
    <clipPath id="clip0_1138_17056">
      <rect width="64" height="12" fill="white"/>
    </clipPath>
  </defs>
</svg>