<svg xmlns="http://www.w3.org/2000/svg" width="114" height="25" viewBox="0 0 114 25" fill="none">
  <path d="M107.331 8.14645C107.331 3.64607 103.701 0 99.2296 0L13.241 0C10.6391 0 8.29126 0.636918 6.26206 1.8955C4.24045 3.14645 2.65882 4.87414 1.56646 7.02517C0.527212 9.07323 0 11.3539 0 13.8063C0 15.8352 0.436182 17.704 1.29717 19.3631C2.21884 21.1404 3.5729 22.5477 5.31763 23.5507C6.99409 24.5118 8.92846 25 11.0639 25C13.0438 25 14.853 24.5881 16.4763 23.7872C17.2349 24.4699 18.221 24.8589 19.2565 24.8589H22.7346C23.8231 24.8589 24.8245 24.4355 25.5755 23.7338C26.3302 24.4394 27.3392 24.8589 28.4163 24.8589L48.8335 24.8589C50.3961 24.8589 51.8261 23.9817 52.5391 22.5896L53.1801 21.3387C53.5101 23.3677 55.2548 24.8589 57.2992 24.8589H66.8118C68.8372 24.8589 70.5667 23.3982 70.9195 21.3959L70.946 21.2357C71.7425 22.1701 72.6945 22.9481 73.8021 23.5698C75.4937 24.5194 77.4091 25 79.499 25C81.7747 25 83.8722 24.4966 85.7459 23.5126C86.5348 24.3669 87.6385 24.8627 88.8029 24.8627H92.281C93.3696 24.8627 94.3709 24.4394 95.1219 23.7376C95.8767 24.4432 96.8856 24.8627 97.9628 24.8627L101.649 24.8627C103.007 24.8627 104.278 24.1991 105.059 23.0854C105.841 21.9718 106.034 20.5416 105.579 19.2601L104.528 16.3043C104.934 15.8963 105.302 15.4462 105.632 14.9619C106.755 13.3143 107.327 11.3577 107.327 9.1495C107.327 8.94737 107.32 8.74523 107.308 8.5431C107.316 8.41342 107.327 8.28757 107.327 8.15789L107.331 8.14645Z" fill="url(#paint0_linear_1138_14745)"/>
  <path d="M5.14221 17.4916C4.59693 16.4197 4.32617 15.1969 4.32617 13.8233C4.32617 12.0085 4.6947 10.3601 5.43177 8.87805C6.16883 7.39602 7.21426 6.22356 8.57182 5.36453C9.92937 4.5055 11.5126 4.07599 13.3214 4.07599C14.5924 4.07599 15.6943 4.32751 16.6231 4.83441C17.552 5.33745 18.2552 6.0417 18.7403 6.93942C19.2217 7.83715 19.4661 8.88965 19.4661 10.0853L16.0628 10.0853C16.0177 9.17213 15.7131 8.44079 15.1528 7.89519C14.5924 7.34959 13.8629 7.07873 12.9566 7.07873C11.9149 7.07873 11.0011 7.38829 10.2189 8.01515C9.43674 8.63814 8.83882 9.46621 8.42516 10.4994C8.0115 11.5325 7.80467 12.6431 7.80467 13.8233C7.80467 15.0035 8.11679 16.0057 8.73728 16.768C9.35777 17.5341 10.1888 17.9172 11.2343 17.9172C12.2797 17.9172 13.0544 17.6502 13.705 17.1124C14.3555 16.5745 14.882 15.8277 15.2806 14.8642H18.7065C18.2176 16.7564 17.3075 18.2384 15.9801 19.3141C14.6526 20.386 13.0469 20.9238 11.1628 20.9238C9.76767 20.9238 8.55302 20.6181 7.51887 20.0106C6.48472 19.4031 5.69501 18.5634 5.14973 17.4916H5.14221Z" fill="#050505"/>
  <path d="M29.8833 14.6421L32.0141 20.652L28.3354 20.652L26.4846 15.1791L23.6385 15.1791L22.6659 20.652H19.1953L22.0641 4.34766L28.0137 4.34766C29.1415 4.34766 30.1217 4.55713 30.9544 4.97607C31.787 5.395 32.4228 5.97009 32.8656 6.70133C33.3047 7.43257 33.5242 8.2476 33.5242 9.14641C33.5242 10.4984 33.2025 11.641 32.5629 12.5817C31.9232 13.5224 31.0301 14.208 29.8909 14.6421H29.8833ZM26.829 12.2656C27.7866 12.2656 28.5549 12.0104 29.1301 11.4963C29.7092 10.9821 29.9968 10.2775 29.9968 9.37493C29.9968 8.6932 29.7925 8.16762 29.3837 7.802C28.975 7.43638 28.3997 7.25357 27.6579 7.25357L24.9972 7.25357L24.1419 12.2618H26.8253L26.829 12.2656Z" fill="#050505"/>
  <path d="M47.309 4.34772L46.7789 7.35265L39.5614 7.35265L38.9186 11.0088L44.7828 11.0088L44.2753 13.8729L38.4374 13.8729L37.7721 17.6471H45.2677L44.7377 20.6521H33.7949L36.6443 4.34772L47.3127 4.34772H47.309Z" fill="#050505"/>
  <path d="M56.7085 17.0872H50.6998L48.8814 20.652H45.1504L53.7832 4.34766H57.9057L60.831 20.652H57.2845L56.7085 17.0872ZM56.2944 14.2689L55.2816 8.11811L52.1267 14.2689H56.2944Z" fill="#050505"/>
  <path d="M74.3443 4.34772L73.8131 7.35265H69.1839L66.8561 20.6521H63.402L65.7298 7.35265L61.1006 7.35265L61.6317 4.34772L74.348 4.34772H74.3443Z" fill="#050505"/>
  <path d="M87.8058 7.51979C88.3881 8.59938 88.6774 9.81827 88.6774 11.1765C88.6774 12.9913 88.293 14.6397 87.5242 16.1217C86.7553 17.6037 85.6744 18.7762 84.2776 19.6352C82.8808 20.4942 81.2823 20.9238 79.482 20.9238C78.1004 20.9238 76.8749 20.6181 75.8054 20.0106C74.7359 19.403 73.9062 18.5595 73.3276 17.4799C72.7453 16.4003 72.4561 15.1814 72.4561 13.8232C72.4561 12.0084 72.8443 10.36 73.6207 8.87798C74.3971 7.39596 75.4857 6.2235 76.8901 5.36447C78.2945 4.50544 79.8893 4.07593 81.6743 4.07593C83.0559 4.07593 84.2776 4.37775 85.3395 4.98526C86.4014 5.59277 87.2235 6.43633 87.8058 7.51592V7.51979ZM76.6465 10.4877C76.1974 11.5131 75.9728 12.6082 75.9728 13.7768C75.9728 14.5507 76.1289 15.2511 76.4372 15.8818C76.7455 16.5125 77.187 17.0117 77.7541 17.3715C78.3212 17.7314 78.9758 17.9171 79.7218 17.9171C80.8065 17.9171 81.7618 17.6076 82.5839 16.9807C83.406 16.3577 84.0416 15.5374 84.4946 14.5197C84.9437 13.502 85.1682 12.4108 85.1682 11.2423C85.1682 10.0737 84.8295 9.04824 84.1558 8.25886C83.4822 7.46948 82.5839 7.07479 81.4688 7.07479C80.3536 7.07479 79.4211 7.38436 78.5838 8.01121C77.7464 8.63421 77.1032 9.45841 76.6503 10.4838L76.6465 10.4877Z" fill="#050505"/>
  <path d="M99.5674 14.6421L101.738 20.652L97.9902 20.652L96.1046 15.1791L93.2048 15.1791L92.2138 20.652H88.6777L91.6007 4.34766L97.6625 4.34766C98.8116 4.34766 99.8103 4.55713 100.659 4.97607C101.507 5.395 102.155 5.97009 102.606 6.70133C103.053 7.43257 103.277 8.2476 103.277 9.14641C103.277 10.4984 102.949 11.641 102.297 12.5817C101.646 13.5224 100.736 14.208 99.5751 14.6421H99.5674ZM96.4555 12.2656C97.4311 12.2656 98.2139 12.0104 98.8 11.4963C99.39 10.9821 99.6831 10.2775 99.6831 9.37493C99.6831 8.6932 99.4748 8.16762 99.0584 7.802C98.6419 7.43638 98.0558 7.25357 97.3 7.25357L94.5891 7.25357L93.7177 12.2618H96.4516L96.4555 12.2656Z" fill="#050505"/>
  <defs>
    <linearGradient id="paint0_linear_1138_14745" x1="0" y1="12.5" x2="107.331" y2="12.5" gradientUnits="userSpaceOnUse">
      <stop stop-color="#00FFA3"/>
      <stop offset="1" stop-color="#FFE500"/>
    </linearGradient>
  </defs>
</svg>