<svg xmlns="http://www.w3.org/2000/svg" width="16" height="16" viewBox="0 0 16 16" fill="none">
  <path d="M14.9847 5.67557C14.9847 5.68244 14.9847 5.68869 14.9803 5.69557L13.5628 12.1874C13.5191 12.416 13.3971 12.6223 13.2178 12.7706C13.0385 12.9189 12.813 13 12.5803 12.9999H3.41965C3.18704 12.9999 2.96173 12.9187 2.78252 12.7704C2.6033 12.6221 2.48139 12.4159 2.43778 12.1874L1.02028 5.69557C1.02028 5.68869 1.01715 5.68244 1.0159 5.67557C0.977108 5.46063 1.00975 5.2389 1.10884 5.04426C1.20792 4.84962 1.36801 4.69278 1.56464 4.59769C1.76126 4.5026 1.98361 4.4745 2.19771 4.51768C2.41181 4.56086 2.60588 4.67295 2.75028 4.83682L4.85465 7.10494L7.09215 2.08682C7.09226 2.08474 7.09226 2.08265 7.09215 2.08057C7.17216 1.90704 7.30022 1.76006 7.46116 1.65704C7.6221 1.55402 7.80919 1.49927 8.00028 1.49927C8.19137 1.49927 8.37846 1.55402 8.5394 1.65704C8.70034 1.76006 8.82839 1.90704 8.9084 2.08057C8.9083 2.08265 8.9083 2.08474 8.9084 2.08682L11.1459 7.10494L13.2503 4.83682C13.395 4.67417 13.5888 4.56317 13.8023 4.5207C14.0158 4.47822 14.2374 4.50658 14.4333 4.60147C14.6292 4.69636 14.7888 4.8526 14.8879 5.04645C14.987 5.24031 15.0201 5.46119 14.9822 5.67557H14.9847Z" fill="#050505"/>
  <path d="M14.9847 5.67557C14.9847 5.68244 14.9847 5.68869 14.9803 5.69557L13.5628 12.1874C13.5191 12.416 13.3971 12.6223 13.2178 12.7706C13.0385 12.9189 12.813 13 12.5803 12.9999H3.41965C3.18704 12.9999 2.96173 12.9187 2.78252 12.7704C2.6033 12.6221 2.48139 12.4159 2.43778 12.1874L1.02028 5.69557C1.02028 5.68869 1.01715 5.68244 1.0159 5.67557C0.977108 5.46063 1.00975 5.2389 1.10884 5.04426C1.20792 4.84962 1.36801 4.69278 1.56464 4.59769C1.76126 4.5026 1.98361 4.4745 2.19771 4.51768C2.41181 4.56086 2.60588 4.67295 2.75028 4.83682L4.85465 7.10494L7.09215 2.08682C7.09226 2.08474 7.09226 2.08265 7.09215 2.08057C7.17216 1.90704 7.30022 1.76006 7.46116 1.65704C7.6221 1.55402 7.80919 1.49927 8.00028 1.49927C8.19137 1.49927 8.37846 1.55402 8.5394 1.65704C8.70034 1.76006 8.82839 1.90704 8.9084 2.08057C8.9083 2.08265 8.9083 2.08474 8.9084 2.08682L11.1459 7.10494L13.2503 4.83682C13.395 4.67417 13.5888 4.56317 13.8023 4.5207C14.0158 4.47822 14.2374 4.50658 14.4333 4.60147C14.6292 4.69636 14.7888 4.8526 14.8879 5.04645C14.987 5.24031 15.0201 5.46119 14.9822 5.67557H14.9847Z" fill="url(#paint0_linear_1138_14612)"/>
  <defs>
    <linearGradient id="paint0_linear_1138_14612" x1="1" y1="7.24961" x2="14.9974" y2="7.24961" gradientUnits="userSpaceOnUse">
      <stop stop-color="#00FFA3"/>
      <stop offset="1" stop-color="#FFE500"/>
    </linearGradient>
  </defs>
</svg>