<svg xmlns="http://www.w3.org/2000/svg" width="90" height="40" viewBox="0 0 90 40" fill="none">
  <rect x="0.5" y="0.5" width="89" height="39" rx="3.5" stroke="#242424"/>
  <path fill-rule="evenodd" clip-rule="evenodd" d="M43.0884 25.741V19.4602H46.3125C47.6337 19.4602 48.7488 19.0151 49.6578 18.1373L49.876 17.9148C51.5365 16.0973 51.4274 13.266 49.6578 11.5846C48.773 10.6944 47.561 10.2122 46.3125 10.2369H41.137V25.741H43.0884ZM43.0886 17.556V12.1407H46.3617C47.0648 12.1407 47.7316 12.4127 48.2286 12.9073C49.2833 13.9458 49.3075 15.6767 48.2892 16.7524C47.7922 17.284 47.0891 17.5808 46.3617 17.556H43.0886ZM58.9787 15.9612C58.1424 15.1823 57.003 14.7867 55.5607 14.7867C53.7062 14.7867 52.3123 15.479 51.3912 16.8514L53.1123 17.9518C53.7426 17.0121 54.6031 16.5423 55.694 16.5423C56.3849 16.5423 57.0515 16.8019 57.5727 17.2718C58.0818 17.7168 58.3727 18.3598 58.3727 19.0398V19.4972C57.6212 19.0768 56.6758 18.8543 55.5122 18.8543C54.1547 18.8543 53.0638 19.1758 52.2517 19.831C51.4397 20.4863 51.0276 21.3518 51.0276 22.4521C51.0033 23.4536 51.4275 24.4056 52.179 25.0485C52.9426 25.7409 53.9123 26.0871 55.0516 26.0871C56.397 26.0871 57.4636 25.4812 58.2757 24.2696H58.3605V25.7409H60.2271V19.2005C60.2271 17.8281 59.815 16.7401 58.9787 15.9612ZM53.6822 23.7875C53.2822 23.4908 53.0397 23.0086 53.0397 22.4893C53.0397 21.9082 53.3064 21.426 53.8277 21.0428C54.3611 20.6595 55.0278 20.4617 55.8158 20.4617C56.9068 20.4493 57.7554 20.6966 58.3615 21.1911C58.3615 22.0319 58.0342 22.7613 57.3917 23.3795C56.8098 23.973 56.0219 24.3068 55.1975 24.3068C54.652 24.3191 54.1186 24.1337 53.6822 23.7875ZM64.4208 30.4021L70.9417 15.1329H68.8206L65.8026 22.749H65.7662L62.6754 15.1329H60.5543L64.8329 25.061L62.4088 30.4021H64.4208Z" fill="white"/>
  <path d="M36.3514 18.1003C36.3514 17.4944 36.3029 16.8886 36.206 16.2952H27.9761V19.7199H32.691C32.4971 20.8203 31.8668 21.8094 30.9456 22.4276V24.653H33.7576C35.406 23.1076 36.3514 20.8203 36.3514 18.1003Z" fill="#4285F4"/>
  <path d="M27.9765 26.8041C30.328 26.8041 32.3157 26.0129 33.7581 24.6528L30.9461 22.4274C30.1583 22.9714 29.1523 23.2805 27.9765 23.2805C25.6979 23.2805 23.7707 21.7103 23.0798 19.6085H20.183V21.9081C21.6617 24.9125 24.6797 26.8041 27.9765 26.8041Z" fill="#34A853"/>
  <path d="M23.0801 19.6082C22.7164 18.5079 22.7164 17.3086 23.0801 16.1959V13.9086H20.1828C18.9342 16.4184 18.9342 19.3857 20.1828 21.8955L23.0801 19.6082Z" fill="#FBBC04"/>
  <path d="M27.9765 12.5242C29.225 12.4995 30.4249 12.9816 31.3218 13.8595L33.8187 11.3125C32.2309 9.80418 30.1461 8.97581 27.9765 9.00054C24.6797 9.00054 21.6617 10.9045 20.183 13.9089L23.0798 16.2086C23.7707 14.0944 25.6979 12.5242 27.9765 12.5242Z" fill="#EA4335"/>
</svg>