<svg xmlns="http://www.w3.org/2000/svg" width="37" height="28" viewBox="0 0 37 28" fill="none">
  <g clip-path="url(#clip0_1138_17154)">
    <path d="M6.70611 27.9387V26.0804C6.70611 25.3696 6.26175 24.9041 5.49894 24.9041C5.11753 24.9041 4.7028 25.0268 4.41767 25.4309C4.1955 25.0918 3.87704 24.9041 3.39936 24.9041C3.08091 24.9041 2.76245 24.9979 2.51065 25.3371V24.9655H1.84412V27.9387H2.51065V26.2969C2.51065 25.7701 2.79578 25.5211 3.24013 25.5211C3.68449 25.5211 3.90667 25.799 3.90667 26.2969V27.9387H4.5732V26.2969C4.5732 25.7701 4.89165 25.5211 5.30268 25.5211C5.74704 25.5211 5.96922 25.799 5.96922 26.2969V27.9387H6.70611ZM16.593 24.9655H15.5117V24.067H14.8452V24.9655H14.2416V25.5536H14.8452V26.9175C14.8452 27.5995 15.1303 28 15.8932 28C16.1783 28 16.4967 27.9062 16.7189 27.7835L16.5264 27.2242C16.3338 27.3469 16.1116 27.3794 15.9524 27.3794C15.6339 27.3794 15.508 27.1918 15.508 26.8851V25.5536H16.5893V24.9655H16.593ZM22.2511 24.9005C21.8697 24.9005 21.6142 25.0882 21.455 25.3335V24.9619H20.7885V27.9351H21.455V26.2608C21.455 25.7665 21.6772 25.4851 22.0919 25.4851C22.2178 25.4851 22.377 25.5175 22.5066 25.5464L22.6992 24.9258C22.5659 24.9005 22.377 24.9005 22.2511 24.9005ZM13.701 25.2108C13.3825 24.9943 12.9382 24.9005 12.4605 24.9005C11.6977 24.9005 11.1904 25.2722 11.1904 25.8603C11.1904 26.3546 11.5718 26.6361 12.2383 26.7263L12.5568 26.7588C12.9049 26.8201 13.0974 26.9139 13.0974 27.0691C13.0974 27.2856 12.8419 27.4407 12.3976 27.4407C11.9532 27.4407 11.6014 27.2856 11.3792 27.1304L11.0608 27.6248C11.4089 27.8737 11.8865 27.9964 12.3642 27.9964C13.2529 27.9964 13.764 27.5923 13.764 27.0366C13.764 26.5098 13.3492 26.232 12.716 26.1382L12.3976 26.1057C12.1124 26.0732 11.8903 26.0119 11.8903 25.8278C11.8903 25.6113 12.1124 25.4887 12.4642 25.4887C12.8456 25.4887 13.227 25.6438 13.4196 25.7376L13.701 25.2108ZM31.4345 24.9005C31.0531 24.9005 30.7976 25.0882 30.6383 25.3335V24.9619H29.9718V27.9351H30.6383V26.2608C30.6383 25.7665 30.8605 25.4851 31.2753 25.4851C31.4012 25.4851 31.5604 25.5175 31.69 25.5464L31.8825 24.933C31.7529 24.9005 31.5641 24.9005 31.4345 24.9005ZM22.9177 26.4521C22.9177 27.3505 23.5546 28 24.5396 28C24.9839 28 25.3024 27.9062 25.6208 27.6608L25.3024 27.134C25.0469 27.3217 24.7951 27.4119 24.5062 27.4119C23.9656 27.4119 23.5842 27.0402 23.5842 26.4521C23.5842 25.8928 23.9656 25.5211 24.5062 25.4923C24.7914 25.4923 25.0469 25.5861 25.3024 25.7701L25.6208 25.2433C25.3024 24.9943 24.9839 24.9041 24.5396 24.9041C23.5546 24.9005 22.9177 25.5536 22.9177 26.4521ZM29.0831 26.4521V24.9655H28.4166V25.3371C28.1944 25.0593 27.8759 24.9041 27.4612 24.9041C26.6021 24.9041 25.9356 25.5536 25.9356 26.4521C25.9356 27.3505 26.6021 28 27.4612 28C27.9056 28 28.224 27.8449 28.4166 27.567V27.9387H29.0831V26.4521ZM26.6354 26.4521C26.6354 25.9253 26.9835 25.4923 27.5575 25.4923C28.0981 25.4923 28.4795 25.8964 28.4795 26.4521C28.4795 26.9789 28.0981 27.4119 27.5575 27.4119C26.9872 27.3794 26.6354 26.9753 26.6354 26.4521ZM18.6593 24.9005C17.7706 24.9005 17.1336 25.5211 17.1336 26.4485C17.1336 27.3794 17.7706 27.9964 18.6926 27.9964C19.1369 27.9964 19.5813 27.8737 19.9331 27.5923L19.6146 27.1268C19.3591 27.3144 19.0407 27.4371 18.7259 27.4371C18.3112 27.4371 17.9002 27.2495 17.8039 26.7263H20.059C20.059 26.6325 20.059 26.5711 20.059 26.4773C20.0886 25.5211 19.5147 24.9005 18.6593 24.9005ZM18.6593 25.4598C19.074 25.4598 19.3591 25.7088 19.4221 26.1706H17.8335C17.8965 25.7701 18.1816 25.4598 18.6593 25.4598ZM35.2189 26.4521V23.7892H34.5524V25.3371C34.3302 25.0593 34.0117 24.9041 33.597 24.9041C32.7379 24.9041 32.0714 25.5536 32.0714 26.4521C32.0714 27.3505 32.7379 28 33.597 28C34.0414 28 34.3598 27.8449 34.5524 27.567V27.9387H35.2189V26.4521ZM32.7713 26.4521C32.7713 25.9253 33.1193 25.4923 33.6933 25.4923C34.2339 25.4923 34.6153 25.8964 34.6153 26.4521C34.6153 26.9789 34.2339 27.4119 33.6933 27.4119C33.1193 27.3794 32.7713 26.9753 32.7713 26.4521ZM10.4572 26.4521V24.9655H9.79067V25.3371C9.56849 25.0593 9.25004 24.9041 8.83531 24.9041C7.97622 24.9041 7.30969 25.5536 7.30969 26.4521C7.30969 27.3505 7.97622 28 8.83531 28C9.27966 28 9.59812 27.8449 9.79067 27.567V27.9387H10.4572V26.4521ZM7.97992 26.4521C7.97992 25.9253 8.328 25.4923 8.90196 25.4923C9.44259 25.4923 9.824 25.8964 9.824 26.4521C9.824 26.9789 9.44259 27.4119 8.90196 27.4119C8.328 27.3794 7.97992 26.9753 7.97992 26.4521Z" fill="white"/>
    <path d="M23.4916 2.38507H13.4788V19.9139H23.4916V2.38507Z" fill="#FF5A00"/>
    <path d="M14.1453 11.1495C14.1453 7.58814 15.8635 4.42732 18.5 2.38505C16.5596 0.898453 14.112 0 11.4422 0C5.11749 0 0 4.9866 0 11.1495C0 17.3124 5.11749 22.299 11.4422 22.299C14.112 22.299 16.5596 21.4005 18.5 19.9139C15.8598 17.9005 14.1453 14.7108 14.1453 11.1495Z" fill="#EB001B"/>
    <path d="M37 11.1495C37 17.3124 31.8825 22.299 25.5578 22.299C22.888 22.299 20.4404 21.4005 18.5 19.9139C21.1698 17.868 22.8547 14.7108 22.8547 11.1495C22.8547 7.58814 21.1365 4.42732 18.5 2.38505C20.4366 0.898453 22.8843 0 25.5541 0C31.8825 0 37 5.01907 37 11.1495Z" fill="#F79E1B"/>
  </g>
  <defs>
    <clipPath id="clip0_1138_17154">
      <rect width="37" height="28" fill="white"/>
    </clipPath>
  </defs>
</svg>