<svg xmlns="http://www.w3.org/2000/svg" width="16" height="16" viewBox="0 0 16 16" fill="none">
  <path d="M15.4768 2.99313C15.4697 2.87081 15.4179 2.75537 15.3312 2.66873C15.2446 2.58209 15.1291 2.53028 15.0068 2.52313C11.7718 2.33563 9.17431 3.31938 8.05806 5.16188C7.32056 6.38001 7.32181 7.85938 8.04806 9.27063C7.63469 9.76273 7.33258 10.3384 7.16244 10.9581L6.14556 9.93751C6.63431 8.91688 6.61556 7.85313 6.08306 6.96938C5.25806 5.60751 3.35369 4.87751 0.989312 5.01626C0.866991 5.0234 0.75155 5.07521 0.664908 5.16185C0.578267 5.2485 0.526456 5.36394 0.519312 5.48626C0.379937 7.85063 1.11056 9.75501 2.47244 10.58C2.92185 10.8546 3.43828 10.9999 3.96494 11C4.47612 10.9937 4.97936 10.8726 5.43744 10.6456L6.99994 12.2081V14C6.99994 14.1326 7.05262 14.2598 7.14638 14.3536C7.24015 14.4473 7.36733 14.5 7.49994 14.5C7.63255 14.5 7.75972 14.4473 7.85349 14.3536C7.94726 14.2598 7.99994 14.1326 7.99994 14V12.1569C7.99771 11.3614 8.2684 10.5893 8.76681 9.96938C9.40991 10.3055 10.1231 10.4853 10.8487 10.4944C11.5502 10.4966 12.2386 10.305 12.8381 9.94063C14.6806 8.82563 15.6668 6.22813 15.4768 2.99313ZM2.98806 9.72501C2.02931 9.14438 1.48681 7.77001 1.49994 6.00001C3.26994 5.98501 4.64431 6.52938 5.22494 7.48813C5.52806 7.98813 5.57744 8.57126 5.37869 9.17188L3.85306 7.64626C3.75853 7.55645 3.63266 7.50712 3.50228 7.50879C3.3719 7.51046 3.24732 7.56299 3.15512 7.65519C3.06292 7.74739 3.01039 7.87197 3.00872 8.00235C3.00705 8.13273 3.05638 8.2586 3.14619 8.35313L4.67181 9.87876C4.07119 10.0775 3.48869 10.0281 2.98806 9.72501ZM12.3199 9.08626C11.4824 9.59313 10.4981 9.63188 9.49806 9.21126L12.8537 5.85501C12.9435 5.76048 12.9928 5.6346 12.9912 5.50422C12.9895 5.37384 12.937 5.24927 12.8448 5.15707C12.7526 5.06487 12.628 5.01233 12.4976 5.01066C12.3672 5.00899 12.2413 5.05832 12.1468 5.14813L8.79056 8.50001C8.36806 7.50001 8.40619 6.51501 8.91556 5.67813C9.78681 4.24063 11.8531 3.43938 14.4987 3.50126C14.5587 6.14626 13.7587 8.21501 12.3199 9.08626Z" fill="white" fill-opacity="0.64"/>
</svg>