<svg xmlns="http://www.w3.org/2000/svg" width="24" height="24" viewBox="0 0 24 24" fill="none">
  <path d="M15.4699 8.00024H8.5366C8.24206 8.00024 8.00323 8.23896 8.00323 8.53351V15.4669C8.00323 15.7615 8.24206 16.0003 8.5366 16.0003H15.4699C15.7644 16.0003 16.0033 15.7615 16.0033 15.4669V8.53351C16.0033 8.23896 15.7644 8.00024 15.4699 8.00024Z" fill="#050505"/>
  <path d="M7.46667 0H0.533374C0.238831 0 0 0.238721 0 0.533373V7.46669C0 7.76124 0.238831 8.00007 0.533374 8.00007H7.46667C7.76132 8.00007 8.00003 7.76124 8.00003 7.46669V0.533373C8.00003 0.238721 7.76132 0 7.46667 0Z" fill="#050505"/>
  <path d="M23.4667 0H16.5333C16.2388 0 15.9999 0.238721 15.9999 0.533373V7.46669C15.9999 7.76124 16.2388 8.00007 16.5333 8.00007H23.4667C23.7613 8.00007 24 7.76124 24 7.46669V0.533373C24 0.238721 23.7613 0 23.4667 0Z" fill="#050505"/>
  <path d="M7.46667 16H0.533374C0.238831 16 0 16.2387 0 16.5333V23.4667C0 23.7612 0.238831 24.0001 0.533374 24.0001H7.46667C7.76132 24.0001 8.00003 23.7612 8.00003 23.4667V16.5333C8.00003 16.2387 7.76132 16 7.46667 16Z" fill="#050505"/>
  <path d="M23.4667 16H16.5333C16.2388 16 15.9999 16.2387 15.9999 16.5333V23.4667C15.9999 23.7612 16.2388 24.0001 16.5333 24.0001H23.4667C23.7613 24.0001 24 23.7612 24 23.4667V16.5333C24 16.2387 23.7613 16 23.4667 16Z" fill="#050505"/>
</svg>