<svg xmlns="http://www.w3.org/2000/svg" width="90" height="40" viewBox="0 0 90 40" fill="none">
  <rect x="0.5" y="0.5" width="89" height="39" rx="3.5" stroke="#242424"/>
  <path d="M36.1705 14.8578H32.1496C31.8745 14.8578 31.6404 15.052 31.5974 15.3163L29.9712 25.3405C29.9427 25.5183 30.0677 25.6848 30.2506 25.7128C30.2678 25.7153 30.2852 25.7167 30.3029 25.7167H32.2225C32.4979 25.7167 32.732 25.522 32.7747 25.2577L33.2135 22.5539C33.2559 22.2898 33.49 22.0951 33.765 22.0948H35.038C37.6868 22.0948 39.2154 20.8488 39.6146 18.3793C39.7946 17.2989 39.6221 16.4501 39.102 15.8556C38.5303 15.2029 37.5167 14.8575 36.1711 14.8575L36.1705 14.8578ZM36.6343 18.519C36.4145 19.9216 35.3119 19.9216 34.246 19.9216H33.6391L34.0648 17.3021C34.0907 17.1438 34.2308 17.027 34.3957 17.027H34.6737C35.3997 17.027 36.0847 17.027 36.4386 17.4295C36.6497 17.6695 36.7142 18.0263 36.6337 18.519H36.6343ZM48.19 18.4737H46.2646C46.0997 18.4737 45.9593 18.5905 45.9337 18.7488L45.8485 19.2723L45.7139 19.0826C45.2969 18.4944 44.3674 18.2979 43.4396 18.2979C41.3118 18.2979 39.4942 19.8648 39.1403 22.0626C38.9563 23.1588 39.218 24.2072 39.8577 24.9382C40.4444 25.6104 41.2841 25.8906 42.2829 25.8906C43.9975 25.8906 44.948 24.8189 44.948 24.8189L44.8623 25.3391C44.8329 25.5169 44.9576 25.6839 45.1402 25.7122C45.1577 25.715 45.1751 25.7161 45.1926 25.7161H46.9269C47.2023 25.7161 47.4364 25.5214 47.4791 25.2571L48.5197 18.85C48.5491 18.673 48.425 18.5062 48.2429 18.478C48.2255 18.4752 48.2078 18.4737 48.19 18.4737ZM45.506 22.1171C45.3202 23.1865 44.447 23.9045 43.3334 23.9045C42.7743 23.9045 42.3274 23.7301 42.0404 23.3996C41.7558 23.0714 41.6476 22.6045 41.7383 22.0843C41.9119 21.024 42.7996 20.2826 43.896 20.2826C44.443 20.2826 44.8873 20.4592 45.1801 20.7925C45.4734 21.1292 45.5897 21.599 45.5057 22.1169L45.506 22.1171ZM58.4452 18.4737H56.5102C56.3249 18.474 56.1517 18.5633 56.0476 18.712L53.379 22.5338L52.2476 18.8613C52.1764 18.6312 51.9586 18.4737 51.7114 18.4737H49.8099C49.6246 18.4732 49.4743 18.6188 49.4737 18.7988C49.4737 18.835 49.4798 18.8706 49.4918 18.9048L51.623 24.9854L49.6194 27.7353C49.5121 27.882 49.5476 28.0855 49.6985 28.1896C49.7552 28.2288 49.8232 28.2498 49.8927 28.2498H51.8254C52.0086 28.2498 52.1801 28.163 52.2845 28.0166L58.7202 18.9851C58.8258 18.8373 58.788 18.6343 58.6359 18.5317C58.5798 18.4938 58.5132 18.4735 58.4449 18.4735L58.4452 18.4737Z" fill="#253B80"/>
  <path d="M64.8516 14.8576H60.8301C60.5553 14.8576 60.3212 15.0521 60.2785 15.3161L58.6523 25.3403C58.6235 25.5178 58.7479 25.6843 58.9302 25.7123C58.9477 25.7149 58.9651 25.7163 58.9826 25.7163H61.0464C61.2389 25.7163 61.4023 25.5798 61.4322 25.3952L61.8937 22.5537C61.9361 22.2897 62.1702 22.0949 62.4453 22.0947H63.7176C66.3671 22.0947 67.895 20.8486 68.2948 18.3792C68.4754 17.2988 68.3018 16.4499 67.7816 15.8555C67.2108 15.2028 66.1975 14.8573 64.8519 14.8573L64.8516 14.8576ZM65.3154 18.5188C65.0961 19.9215 63.9936 19.9215 62.9271 19.9215H62.3208L62.7471 17.3019C62.7724 17.1436 62.9125 17.0269 63.0774 17.0269H63.3553C64.0808 17.0269 64.7664 17.0269 65.1203 17.4294C65.3314 17.6694 65.3953 18.0261 65.3148 18.5188H65.3154ZM76.8705 18.4736H74.9463C74.7814 18.473 74.641 18.5901 74.616 18.7486L74.5308 19.2722L74.3956 19.0825C73.9786 18.4942 73.0496 18.2978 72.1218 18.2978C69.994 18.2978 68.1773 19.8646 67.8232 22.0624C67.6397 23.1586 67.9002 24.2071 68.5399 24.9381C69.1278 25.6103 69.9664 25.8904 70.9652 25.8904C72.6798 25.8904 73.6303 24.8188 73.6303 24.8188L73.5445 25.3389C73.5151 25.5167 73.6399 25.6838 73.8225 25.712C73.8402 25.7149 73.8582 25.7163 73.876 25.716H75.6098C75.8848 25.716 76.1186 25.5212 76.1614 25.2569L77.2026 18.8498C77.2308 18.6718 77.1052 18.505 76.922 18.4776C76.9048 18.475 76.8877 18.4736 76.8705 18.4739V18.4736ZM74.1865 22.117C74.0019 23.1863 73.1275 23.9043 72.0139 23.9043C71.456 23.9043 71.0079 23.7299 70.7209 23.3995C70.4363 23.0713 70.3293 22.6043 70.4188 22.0842C70.5936 21.0239 71.4801 20.2824 72.5766 20.2824C73.1235 20.2824 73.5678 20.4591 73.8606 20.7924C74.1551 21.129 74.2714 21.5988 74.1862 22.1167L74.1865 22.117ZM79.1405 15.1327L77.4901 25.3403C77.4614 25.5178 77.5858 25.6843 77.7681 25.7123C77.7856 25.7149 77.803 25.7163 77.8204 25.7163H79.4795C79.7552 25.7163 79.9892 25.5218 80.0317 25.2572L81.6591 15.2336C81.6879 15.0558 81.5631 14.889 81.3802 14.861C81.3631 14.8585 81.3459 14.8571 81.3285 14.8571H79.4705C79.3057 14.8576 79.1658 14.9744 79.1402 15.1327H79.1405Z" fill="#179BD7"/>
  <path d="M13.2725 27.6646L13.5801 25.7656L12.8951 25.75H9.62433L11.8972 11.7387C11.9112 11.6502 11.9897 11.5849 12.0818 11.5855H17.597C19.4279 11.5855 20.6913 11.9558 21.351 12.687C21.6604 13.0299 21.8573 13.3884 21.9526 13.7827C22.0526 14.1965 22.0544 14.6909 21.9567 15.2941L21.9497 15.3382V15.7247L22.2591 15.8951C22.4952 16.0113 22.7074 16.1687 22.8854 16.3593C23.15 16.6524 23.321 17.0252 23.3934 17.4671C23.4681 17.9216 23.4434 18.4624 23.321 19.0744C23.1799 19.7785 22.9517 20.3919 22.6438 20.8937C22.3719 21.3434 22.0064 21.7326 21.5709 22.0368C21.1618 22.3192 20.6753 22.5334 20.1258 22.6708C19.5931 22.8057 18.9857 22.8738 18.3196 22.8738H17.8904C17.5833 22.8738 17.2853 22.9812 17.0513 23.174C16.8175 23.3688 16.6625 23.6376 16.614 23.933L16.5817 24.104L16.0385 27.4509L16.0138 27.5738C16.0074 27.6128 15.9961 27.6321 15.9798 27.6453C15.9638 27.6581 15.944 27.6651 15.9234 27.6654H13.2734L13.2725 27.6646Z" fill="#253B80"/>
  <path d="M22.5516 15.3826C22.535 15.485 22.5164 15.5895 22.4952 15.697C21.768 19.3274 19.2796 20.5813 16.1016 20.5813H14.4835C14.0948 20.5813 13.7674 20.8558 13.7069 21.2283L12.8785 26.3363L12.6439 27.7841C12.6081 28.0038 12.7622 28.2098 12.9881 28.2446C13.0093 28.248 13.0309 28.2494 13.0527 28.2494H15.9225C16.2624 28.2494 16.5511 28.0094 16.6046 27.6835L16.6328 27.5419L17.1731 24.2083L17.2077 24.0254C17.2606 23.6984 17.5499 23.4584 17.8898 23.4584H18.3189C21.0995 23.4584 23.2761 22.361 23.9123 19.1852C24.1781 17.8586 24.0406 16.7508 23.3372 15.9717C23.1142 15.7306 22.8481 15.5313 22.5516 15.3829V15.3826Z" fill="#179BD7"/>
  <path d="M21.7909 15.0873C21.5586 15.022 21.3225 14.9711 21.0835 14.9346C20.6116 14.8643 20.1345 14.8303 19.657 14.8334H15.3343C14.9944 14.8334 14.7051 15.074 14.6527 15.4005L13.7331 21.0628L13.7066 21.2278C13.7659 20.8553 14.0956 20.5805 14.4832 20.5808H16.1013C19.2793 20.5808 21.7674 19.326 22.4949 15.6965C22.5167 15.589 22.535 15.4844 22.5513 15.3821C22.3594 15.2843 22.1593 15.2023 21.9532 15.137C21.8991 15.1195 21.845 15.1031 21.7904 15.0873H21.7909Z" fill="#222D65"/>
  <path d="M14.6527 15.4007C14.7045 15.0739 14.9941 14.8331 15.3343 14.8342H19.657C20.1691 14.8342 20.6471 14.8667 21.0835 14.9354C21.3786 14.9806 21.67 15.0479 21.9543 15.1372C22.1689 15.2065 22.3684 15.2882 22.5524 15.3823C22.7688 14.0407 22.5507 13.1274 21.8046 12.3003C20.9815 11.3898 19.4968 11 17.5973 11H12.0821C11.6939 11 11.3631 11.2745 11.3032 11.6476L9.00585 25.8034C8.96486 26.0547 9.14135 26.2907 9.39984 26.3306C9.42426 26.3343 9.44868 26.3362 9.4734 26.3362H12.8782L13.7331 21.0632L14.6527 15.401V15.4007Z" fill="#253B80"/>
</svg>