<svg xmlns="http://www.w3.org/2000/svg" width="20" height="20" viewBox="0 0 20 20" fill="none">
  <path d="M9.40253 2.87774C9.59461 2.48863 9.69064 2.29407 9.82102 2.23191C9.93445 2.17782 10.0662 2.17782 10.1797 2.23191C10.31 2.29407 10.4061 2.48863 10.5981 2.87774L12.4204 6.56938C12.4771 6.68426 12.5054 6.7417 12.5469 6.78629C12.5836 6.82578 12.6276 6.85777 12.6764 6.8805C12.7316 6.90617 12.795 6.91543 12.9218 6.93396L16.9978 7.52973C17.427 7.59247 17.6417 7.62384 17.741 7.72868C17.8274 7.81989 17.868 7.94523 17.8516 8.06979C17.8327 8.21296 17.6773 8.3643 17.3666 8.66696L14.4182 11.5387C14.3263 11.6282 14.2803 11.6729 14.2507 11.7262C14.2244 11.7734 14.2076 11.8252 14.2011 11.8787C14.1937 11.9392 14.2046 12.0025 14.2263 12.1289L14.922 16.1851C14.9953 16.6129 15.032 16.8268 14.9631 16.9537C14.9031 17.0642 14.7965 17.1416 14.6729 17.1645C14.5308 17.1909 14.3388 17.0899 13.9546 16.8878L10.3106 14.9715C10.1971 14.9118 10.1403 14.8819 10.0805 14.8702C10.0276 14.8598 9.97311 14.8598 9.92015 14.8702C9.86034 14.8819 9.80358 14.9118 9.69004 14.9715L6.0461 16.8878C5.66192 17.0899 5.46984 17.1909 5.3278 17.1645C5.20423 17.1416 5.09759 17.0642 5.03761 16.9537C4.96866 16.8268 5.00535 16.6129 5.07872 16.1851L5.7744 12.1289C5.79609 12.0025 5.80693 11.9392 5.79959 11.8787C5.7931 11.8252 5.77625 11.7734 5.75 11.7262C5.72034 11.6729 5.67439 11.6282 5.58248 11.5387L2.63413 8.66696C2.32338 8.3643 2.168 8.21296 2.1491 8.06979C2.13265 7.94523 2.17329 7.81989 2.2597 7.72868C2.35902 7.62384 2.57363 7.59247 3.00286 7.52973L7.07892 6.93396C7.20568 6.91543 7.26906 6.90617 7.32426 6.8805C7.37313 6.85777 7.41713 6.82578 7.45381 6.78629C7.49525 6.7417 7.5236 6.68426 7.5803 6.56938L9.40253 2.87774Z" stroke="url(#paint0_linear_1934_4811)" stroke-width="2" stroke-linecap="round" stroke-linejoin="round"/>
  <defs>
    <linearGradient id="paint0_linear_1934_4811" x1="2.14551" y1="9.68" x2="17.8552" y2="9.68" gradientUnits="userSpaceOnUse">
      <stop stop-color="#00FFA3"/>
      <stop offset="1" stop-color="#FFE500"/>
    </linearGradient>
  </defs>
</svg>