<svg xmlns="http://www.w3.org/2000/svg" width="16" height="16" viewBox="0 0 16 16" fill="none">
  <path d="M7.53747 2.13801C7.68913 1.87411 7.76495 1.74216 7.86406 1.69793C7.95051 1.65936 8.04927 1.65936 8.13571 1.69793C8.23483 1.74216 8.31065 1.87411 8.46231 2.13802L9.76575 4.40623C9.82189 4.50392 9.84996 4.55277 9.88932 4.58827C9.92414 4.61967 9.9652 4.64338 10.0098 4.65784C10.0602 4.67417 10.1166 4.67406 10.2292 4.67383L12.8453 4.66854C13.1497 4.66792 13.3019 4.66761 13.3897 4.73134C13.4663 4.78691 13.5157 4.87245 13.5255 4.96659C13.5368 5.07454 13.4604 5.20618 13.3077 5.46947L11.9951 7.73239C11.9386 7.82986 11.9103 7.87859 11.8992 7.93043C11.8895 7.97629 11.8895 8.0237 11.8992 8.06956C11.9103 8.1214 11.9386 8.17013 11.9951 8.26759L13.3077 10.5305C13.4604 10.7938 13.5368 10.9255 13.5255 11.0334C13.5157 11.1275 13.4663 11.2131 13.3897 11.2687C13.3019 11.3324 13.1497 11.3321 12.8453 11.3314L10.2292 11.3262C10.1166 11.3259 10.0602 11.3258 10.0098 11.3422C9.9652 11.3566 9.92414 11.3803 9.88932 11.4117C9.84996 11.4472 9.82189 11.4961 9.76575 11.5938L8.46231 13.862C8.31065 14.1259 8.23483 14.2578 8.13571 14.3021C8.04927 14.3406 7.95051 14.3406 7.86406 14.3021C7.76495 14.2578 7.68913 14.1259 7.53747 13.862L6.23403 11.5938C6.17789 11.4961 6.14982 11.4472 6.11046 11.4117C6.07563 11.3803 6.03457 11.3566 5.98996 11.3422C5.93954 11.3258 5.8832 11.3259 5.77053 11.3262L3.15447 11.3314C2.8501 11.3321 2.69791 11.3324 2.61006 11.2687C2.53343 11.2131 2.48405 11.1275 2.47423 11.0334C2.46298 10.9255 2.53934 10.7938 2.69206 10.5305L4.00467 8.26759C4.0612 8.17013 4.08947 8.1214 4.10053 8.06956C4.11032 8.0237 4.11032 7.97629 4.10053 7.93043C4.08947 7.87859 4.0612 7.82986 4.00467 7.73239L2.69206 5.46947C2.53934 5.20618 2.46298 5.07454 2.47423 4.96659C2.48405 4.87245 2.53343 4.78691 2.61006 4.73134C2.69791 4.66761 2.8501 4.66792 3.15448 4.66854L5.77053 4.67383C5.8832 4.67406 5.93954 4.67417 5.98996 4.65784C6.03457 4.64338 6.07563 4.61967 6.11046 4.58827C6.14982 4.55277 6.17789 4.50392 6.23403 4.40623L7.53747 2.13801Z" fill="url(#paint0_linear_1771_8120)"/>
  <path d="M7.53747 2.13801C7.68913 1.87411 7.76495 1.74216 7.86406 1.69793C7.95051 1.65936 8.04927 1.65936 8.13571 1.69793C8.23483 1.74216 8.31065 1.87411 8.46231 2.13802L9.76575 4.40623C9.82189 4.50392 9.84996 4.55277 9.88932 4.58827C9.92414 4.61967 9.9652 4.64338 10.0098 4.65784C10.0602 4.67417 10.1166 4.67406 10.2292 4.67383L12.8453 4.66854C13.1497 4.66792 13.3019 4.66761 13.3897 4.73134C13.4663 4.78691 13.5157 4.87245 13.5255 4.96659C13.5368 5.07454 13.4604 5.20618 13.3077 5.46947L11.9951 7.73239C11.9386 7.82986 11.9103 7.87859 11.8992 7.93043C11.8895 7.97629 11.8895 8.0237 11.8992 8.06956C11.9103 8.1214 11.9386 8.17013 11.9951 8.26759L13.3077 10.5305C13.4604 10.7938 13.5368 10.9255 13.5255 11.0334C13.5157 11.1275 13.4663 11.2131 13.3897 11.2687C13.3019 11.3324 13.1497 11.3321 12.8453 11.3314L10.2292 11.3262C10.1166 11.3259 10.0602 11.3258 10.0098 11.3422C9.9652 11.3566 9.92414 11.3803 9.88932 11.4117C9.84996 11.4472 9.82189 11.4961 9.76575 11.5938L8.46231 13.862C8.31065 14.1259 8.23483 14.2578 8.13571 14.3021C8.04927 14.3406 7.95051 14.3406 7.86406 14.3021C7.76495 14.2578 7.68913 14.1259 7.53747 13.862L6.23403 11.5938C6.17789 11.4961 6.14982 11.4472 6.11046 11.4117C6.07563 11.3803 6.03457 11.3566 5.98996 11.3422C5.93954 11.3258 5.8832 11.3259 5.77053 11.3262L3.15447 11.3314C2.8501 11.3321 2.69791 11.3324 2.61006 11.2687C2.53343 11.2131 2.48405 11.1275 2.47423 11.0334C2.46298 10.9255 2.53934 10.7938 2.69206 10.5305L4.00467 8.26759C4.0612 8.17013 4.08947 8.1214 4.10053 8.06956C4.11032 8.0237 4.11032 7.97629 4.10053 7.93043C4.08947 7.87859 4.0612 7.82986 4.00467 7.73239L2.69206 5.46947C2.53934 5.20618 2.46298 5.07454 2.47423 4.96659C2.48405 4.87245 2.53343 4.78691 2.61006 4.73134C2.69791 4.66761 2.8501 4.66792 3.15448 4.66854L5.77053 4.67383C5.8832 4.67406 5.93954 4.67417 5.98996 4.65784C6.03457 4.64338 6.07563 4.61967 6.11046 4.58827C6.14982 4.55277 6.17789 4.50392 6.23403 4.40623L7.53747 2.13801Z" stroke="white" stroke-width="1.5" stroke-linecap="round" stroke-linejoin="round"/>
  <path d="M7.53747 2.13801C7.68913 1.87411 7.76495 1.74216 7.86406 1.69793C7.95051 1.65936 8.04927 1.65936 8.13571 1.69793C8.23483 1.74216 8.31065 1.87411 8.46231 2.13802L9.76575 4.40623C9.82189 4.50392 9.84996 4.55277 9.88932 4.58827C9.92414 4.61967 9.9652 4.64338 10.0098 4.65784C10.0602 4.67417 10.1166 4.67406 10.2292 4.67383L12.8453 4.66854C13.1497 4.66792 13.3019 4.66761 13.3897 4.73134C13.4663 4.78691 13.5157 4.87245 13.5255 4.96659C13.5368 5.07454 13.4604 5.20618 13.3077 5.46947L11.9951 7.73239C11.9386 7.82986 11.9103 7.87859 11.8992 7.93043C11.8895 7.97629 11.8895 8.0237 11.8992 8.06956C11.9103 8.1214 11.9386 8.17013 11.9951 8.26759L13.3077 10.5305C13.4604 10.7938 13.5368 10.9255 13.5255 11.0334C13.5157 11.1275 13.4663 11.2131 13.3897 11.2687C13.3019 11.3324 13.1497 11.3321 12.8453 11.3314L10.2292 11.3262C10.1166 11.3259 10.0602 11.3258 10.0098 11.3422C9.9652 11.3566 9.92414 11.3803 9.88932 11.4117C9.84996 11.4472 9.82189 11.4961 9.76575 11.5938L8.46231 13.862C8.31065 14.1259 8.23483 14.2578 8.13571 14.3021C8.04927 14.3406 7.95051 14.3406 7.86406 14.3021C7.76495 14.2578 7.68913 14.1259 7.53747 13.862L6.23403 11.5938C6.17789 11.4961 6.14982 11.4472 6.11046 11.4117C6.07563 11.3803 6.03457 11.3566 5.98996 11.3422C5.93954 11.3258 5.8832 11.3259 5.77053 11.3262L3.15447 11.3314C2.8501 11.3321 2.69791 11.3324 2.61006 11.2687C2.53343 11.2131 2.48405 11.1275 2.47423 11.0334C2.46298 10.9255 2.53934 10.7938 2.69206 10.5305L4.00467 8.26759C4.0612 8.17013 4.08947 8.1214 4.10053 8.06956C4.11032 8.0237 4.11032 7.97629 4.10053 7.93043C4.08947 7.87859 4.0612 7.82986 4.00467 7.73239L2.69206 5.46947C2.53934 5.20618 2.46298 5.07454 2.47423 4.96659C2.48405 4.87245 2.53343 4.78691 2.61006 4.73134C2.69791 4.66761 2.8501 4.66792 3.15448 4.66854L5.77053 4.67383C5.8832 4.67406 5.93954 4.67417 5.98996 4.65784C6.03457 4.64338 6.07563 4.61967 6.11046 4.58827C6.14982 4.55277 6.17789 4.50392 6.23403 4.40623L7.53747 2.13801Z" stroke="url(#paint1_linear_1771_8120)" stroke-width="1.5" stroke-linecap="round" stroke-linejoin="round"/>
  <defs>
    <linearGradient id="paint0_linear_1771_8120" x1="2.47314" y1="7.99999" x2="13.5266" y2="7.99999" gradientUnits="userSpaceOnUse">
      <stop stop-color="#00FFA3"/>
      <stop offset="1" stop-color="#FFE500"/>
    </linearGradient>
    <linearGradient id="paint1_linear_1771_8120" x1="2.47314" y1="7.99999" x2="13.5266" y2="7.99999" gradientUnits="userSpaceOnUse">
      <stop stop-color="#00FFA3"/>
      <stop offset="1" stop-color="#FFE500"/>
    </linearGradient>
  </defs>
</svg>