<svg xmlns="http://www.w3.org/2000/svg" width="14" height="14" viewBox="0 0 14 14" fill="none">
  <path d="M12.8127 6.28085L10.3518 8.40436L11.1015 11.5801C11.1429 11.7525 11.1322 11.9332 11.0709 12.0996C11.0096 12.2659 10.9003 12.4104 10.757 12.5147C10.6136 12.6189 10.4425 12.6784 10.2654 12.6855C10.0882 12.6926 9.91296 12.6471 9.76168 12.5546L6.99997 10.8549L4.23661 12.5546C4.08536 12.6465 3.91029 12.6916 3.73345 12.6843C3.55661 12.6769 3.3859 12.6174 3.24283 12.5132C3.09975 12.409 2.9907 12.2648 2.92941 12.0987C2.86812 11.9327 2.85734 11.7522 2.8984 11.5801L3.6509 8.40436L1.18997 6.28085C1.05614 6.16519 0.959362 6.01267 0.911706 5.84233C0.86405 5.672 0.867632 5.4914 0.922005 5.32309C0.976378 5.15478 1.07913 5.00621 1.21743 4.89595C1.35574 4.78569 1.52346 4.71862 1.69965 4.70311L4.92622 4.4428L6.1709 1.43061C6.23828 1.26645 6.35294 1.12603 6.50032 1.0272C6.64771 0.928378 6.82115 0.87561 6.9986 0.87561C7.17605 0.87561 7.34949 0.928378 7.49687 1.0272C7.64426 1.12603 7.75892 1.26645 7.82629 1.43061L9.07043 4.4428L12.297 4.70311C12.4735 4.71804 12.6418 4.78474 12.7806 4.89485C12.9194 5.00496 13.0226 5.15358 13.0773 5.3221C13.132 5.49061 13.1358 5.67152 13.0881 5.84217C13.0405 6.01282 12.9435 6.1656 12.8094 6.28139L12.8127 6.28085Z" fill="#7AF255"/>
</svg>