<svg xmlns="http://www.w3.org/2000/svg" width="16" height="16" viewBox="0 0 16 16" fill="none">
  <g clip-path="url(#clip0_1771_8114)">
    <path d="M5.99992 8.00001L7.33325 9.33334L10.3333 6.33334M4.8891 2.54581C5.42499 2.50304 5.93373 2.29232 6.3429 1.94362C7.29773 1.12992 8.7021 1.12992 9.65694 1.94362C10.0661 2.29232 10.5749 2.50304 11.1107 2.54581C12.3613 2.6456 13.3543 3.63864 13.4541 4.88919C13.4969 5.42508 13.7076 5.93382 14.0563 6.34299C14.87 7.29783 14.87 8.70219 14.0563 9.65703C13.7076 10.0662 13.4969 10.5749 13.4541 11.1108C13.3543 12.3614 12.3613 13.3544 11.1107 13.4542C10.5749 13.497 10.0661 13.7077 9.65694 14.0564C8.7021 14.8701 7.29773 14.8701 6.3429 14.0564C5.93373 13.7077 5.42499 13.497 4.8891 13.4542C3.63855 13.3544 2.64551 12.3614 2.54572 11.1108C2.50295 10.5749 2.29222 10.0662 1.94353 9.65703C1.12983 8.70219 1.12983 7.29783 1.94353 6.34299C2.29222 5.93382 2.50295 5.42508 2.54572 4.88919C2.64551 3.63864 3.63855 2.6456 4.8891 2.54581Z" stroke="url(#paint0_linear_1771_8114)" stroke-width="1.5" stroke-linecap="round" stroke-linejoin="round"/>
  </g>
  <defs>
    <linearGradient id="paint0_linear_1771_8114" x1="1.33325" y1="8.00001" x2="14.6666" y2="8.00001" gradientUnits="userSpaceOnUse">
      <stop stop-color="#00FFA3"/>
      <stop offset="1" stop-color="#FFE500"/>
    </linearGradient>
    <clipPath id="clip0_1771_8114">
      <rect width="16" height="16" fill="white"/>
    </clipPath>
  </defs>
</svg>