<svg xmlns="http://www.w3.org/2000/svg" width="90" height="40" viewBox="0 0 90 40" fill="none">
  <rect x="0.5" y="0.5" width="89" height="39" rx="3.5" stroke="#242424"/>
  <path fill-rule="evenodd" clip-rule="evenodd" d="M29.6048 30.216H24.2031L20.1524 14.4099C19.9601 13.6828 19.5519 13.04 18.9514 12.7371C17.4528 11.9758 15.8015 11.3699 14 11.0643V10.4558H22.7018C23.9028 10.4558 24.8035 11.3699 24.9537 12.4315L27.0554 23.833L32.4545 10.4558H37.7062L29.6048 30.216ZM40.7086 30.216H35.607L39.8078 10.4558H44.9094L40.7086 30.216ZM51.5095 15.9299C51.6597 14.8656 52.5604 14.2571 53.6112 14.2571C55.2626 14.1043 57.0614 14.4099 58.5627 15.1686L59.4634 10.9141C57.9622 10.3056 56.3108 10 54.8122 10C49.8608 10 46.2579 12.7371 46.2579 16.5358C46.2579 19.4257 48.81 20.9431 50.6114 21.8572C52.5604 22.7687 53.311 23.3772 53.1609 24.2887C53.1609 25.6559 51.6597 26.2645 50.1611 26.2645C48.3596 26.2645 46.5581 25.8087 44.9094 25.0474L44.0087 29.3045C45.8101 30.0632 47.7591 30.3688 49.5606 30.3688C55.1125 30.5189 58.5627 27.7845 58.5627 23.6802C58.5627 18.5116 51.5095 18.2086 51.5095 15.9299ZM76.4167 30.216L72.366 10.4558H68.0151C67.1143 10.4558 66.2136 11.0643 65.9133 11.9758L58.4125 30.216H63.6641L64.7124 27.3288H71.165L71.7655 30.216H76.4167ZM68.7657 15.7772L70.2643 23.2245H66.0635L68.7657 15.7772Z" fill="white"/>
</svg>