<svg xmlns="http://www.w3.org/2000/svg" width="37" height="22" viewBox="0 0 37 22" fill="none">
  <g clip-path="url(#clip0_1138_17356)">
    <path d="M7.51118 4.29617C13.4899 -1.43531 23.1863 -1.43531 29.1649 4.29617L29.8839 4.98135C30.1866 5.26839 30.1866 5.73136 29.8839 6.01839L27.4243 8.3795C27.273 8.51839 27.0365 8.51839 26.8851 8.3795L25.8918 7.4258C21.72 3.4258 14.9561 3.4258 10.7843 7.4258L9.7248 8.44432C9.57344 8.58321 9.33694 8.58321 9.18559 8.44432L6.71655 6.09247C6.41383 5.80543 6.41383 5.34247 6.71655 5.05543L7.51118 4.29617ZM34.2544 9.1758L36.4491 11.2777C36.7518 11.5647 36.7518 12.0277 36.4491 12.3147L26.5635 21.7869C26.2607 22.0739 25.7783 22.0739 25.485 21.7869L18.4752 15.0647C18.3996 14.9906 18.2766 14.9906 18.2009 15.0647L11.1911 21.7869C10.8884 22.0739 10.4059 22.0739 10.1127 21.7869L0.227038 12.3147C-0.0756794 12.0277 -0.0756794 11.5647 0.227038 11.2777L2.42174 9.1758C2.72446 8.88876 3.20691 8.88876 3.50017 9.1758L10.51 15.898C10.5857 15.9721 10.7086 15.9721 10.7843 15.898L17.7941 9.1758C18.0968 8.88876 18.5793 8.88876 18.8725 9.1758L25.8824 15.898C25.958 15.9721 26.081 15.9721 26.1567 15.898L33.1665 9.1758C33.4692 8.88876 33.9517 8.88876 34.2544 9.1758Z" fill="#3B99FC"/>
  </g>
  <defs>
    <clipPath id="clip0_1138_17356">
      <rect width="36.6667" height="22" fill="white"/>
    </clipPath>
  </defs>
</svg>